<svg width="90" height="20" viewBox="0 0 90 20" fill="none" xmlns="http://www.w3.org/2000/svg">
<path d="M6.05047 9.91391V9.90111C6.35648 9.80079 6.5999 9.64072 6.7784 9.42303C6.95923 9.20533 7.04964 8.94281 7.04964 8.63547C7.04964 8.33881 6.96386 8.07629 6.79231 7.84792C6.61844 7.61956 6.38662 7.44454 6.09683 7.32076C5.80473 7.1991 5.48018 7.13721 5.1278 7.13721H2.75391V12.6778H5.1278C5.48018 12.6778 5.80473 12.6159 6.09683 12.4943C6.38662 12.3705 6.61844 12.1955 6.79231 11.9671C6.96386 11.7387 7.04964 11.4762 7.04964 11.1795C7.04964 10.8722 6.95923 10.6097 6.7784 10.392C6.5999 10.1743 6.35648 10.0142 6.05047 9.91391ZM3.85972 8.06349H5.08607C5.35267 8.06349 5.56132 8.12752 5.712 8.25557C5.86269 8.38363 5.93688 8.5501 5.93688 8.75713C5.93688 8.96202 5.86037 9.13063 5.70737 9.26082C5.55436 9.39101 5.33645 9.45717 5.05362 9.45717H3.85972V8.06349ZM5.712 11.5594C5.56132 11.6875 5.35267 11.7515 5.08607 11.7515H3.85972V10.3578H5.05362C5.33645 10.3578 5.55436 10.424 5.70737 10.5542C5.86037 10.6844 5.93688 10.853 5.93688 11.0579C5.93688 11.2649 5.86269 11.4314 5.712 11.5594Z" fill="white"/>
<path d="M7.57031 7.28833H9.55011C10.1598 7.28833 10.693 7.40145 11.1451 7.62768C11.5971 7.85392 11.9472 8.16979 12.1929 8.57744C12.4387 8.98509 12.5615 9.4525 12.5615 9.98607C12.5615 10.5175 12.4387 10.987 12.1929 11.3947C11.9472 11.8023 11.5994 12.1182 11.1451 12.3445C10.693 12.5707 10.1598 12.6838 9.55011 12.6838H7.57031V7.28833ZM9.50142 11.7148C10.1343 11.7148 10.6165 11.5612 10.948 11.2517C11.2795 10.9422 11.4464 10.5196 11.4464 9.98393C11.4464 9.44609 11.2795 9.0235 10.948 8.71617C10.6142 8.4067 10.132 8.25303 9.50142 8.25303H8.67612V11.717H9.50142V11.7148Z" fill="white"/>
<path d="M2.29883 0C2.70296 7.48764e-05 3.10496 0.106087 3.44922 0.317383L18.3945 8.25293C19.0858 8.56999 19.4307 9.20649 19.4307 9.94629C19.4305 10.6859 18.9688 11.3225 18.2803 11.7451L3.45117 19.6826C3.1043 19.894 2.64764 20 2.30078 20C1.95391 20 1.49474 19.894 1.15039 19.6826C0.459177 19.3655 7.48679e-06 18.6235 0 17.8838V2.11621C0 1.37648 0.459228 0.740124 1.15039 0.317383C1.49478 0.106012 1.89705 0 2.29883 0ZM2.29883 0.574219C2.00943 0.574219 1.73215 0.650264 1.49512 0.794922C1.1707 0.994805 0.624023 1.43155 0.624023 2.11621V17.8838C0.624031 18.4145 0.961072 18.9563 1.42773 19.1699L1.46191 19.1865L1.49512 19.207C1.74216 19.3586 2.08426 19.4277 2.29883 19.4277C2.51091 19.4276 2.85469 19.3585 3.10156 19.207L3.11719 19.1982L3.13477 19.1885L17.9453 11.2578C18.2722 11.0534 18.8016 10.6192 18.8018 9.94629C18.8018 9.62464 18.7137 9.04328 18.1123 8.76758L18.0947 8.76074L18.0801 8.75098L3.13672 0.813477L3.11914 0.803711L3.10156 0.794922C2.86716 0.65037 2.58804 0.574294 2.29883 0.574219Z" fill="url(#paint0_linear_884_1285)"/>
<g clip-path="url(#paint1_diamond_884_1285_clip_path)" data-figma-skip-parse="true"><g transform="matrix(-0.088389 -0.0194251 0.45733 -1.71716 96.3709 15.5995)"><rect x="0" y="0" width="834.418" height="9.63619" fill="url(#paint1_diamond_884_1285)" opacity="1" shape-rendering="crispEdges"/><rect x="0" y="0" width="834.418" height="9.63619" transform="scale(1 -1)" fill="url(#paint1_diamond_884_1285)" opacity="1" shape-rendering="crispEdges"/><rect x="0" y="0" width="834.418" height="9.63619" transform="scale(-1 1)" fill="url(#paint1_diamond_884_1285)" opacity="1" shape-rendering="crispEdges"/><rect x="0" y="0" width="834.418" height="9.63619" transform="scale(-1)" fill="url(#paint1_diamond_884_1285)" opacity="1" shape-rendering="crispEdges"/></g></g><path d="M41.1143 5.63354C41.6469 5.63354 42.0801 6.03182 42.0801 6.52222V6.52417C42.0801 7.01457 41.6469 7.41284 41.1143 7.41284H37.2598C36.9373 7.41289 36.6404 7.46755 36.3691 7.57593C36.0977 7.68438 35.8545 7.82839 35.6445 8.00757C35.4345 8.18675 35.2701 8.40104 35.1523 8.64624C35.0346 8.89141 34.9785 9.15323 34.9785 9.4314V12.8787C34.9786 13.1355 35.0835 13.3546 35.2959 13.5408C35.5058 13.7246 35.762 13.8191 36.0615 13.8191H41.1143C41.6469 13.8191 42.08 14.2174 42.0801 14.7078V14.7097C42.0801 15.2001 41.6469 15.5994 41.1143 15.5994H36.0615C35.6392 15.5993 35.245 15.5282 34.8789 15.3845C34.5128 15.2407 34.1923 15.0476 33.9209 14.8025C33.6494 14.5573 33.4345 14.2668 33.2783 13.9343C33.1221 13.6019 33.0449 13.2504 33.0449 12.8826V9.43823C33.0424 8.91729 33.1523 8.4245 33.375 7.95776C33.5978 7.49337 33.8974 7.08768 34.2764 6.74585C34.6554 6.40399 35.0991 6.13278 35.6113 5.93237C36.1234 5.73207 36.6713 5.63355 37.2627 5.63354H41.1143ZM56.5293 5.63354C57.195 5.63354 57.7406 5.77494 58.1631 6.05542C58.5856 6.33595 58.8629 6.68447 58.9961 7.09937C59.1292 7.51421 59.1063 7.95299 58.9297 8.41968C58.753 8.8865 58.4067 9.30905 57.8945 9.68628L52.7109 13.4607C53.09 13.6965 53.5108 13.8142 53.9795 13.8142H58.1484C58.6809 13.8143 59.1131 14.2127 59.1133 14.7029V14.7058C59.1131 15.196 58.6809 15.5943 58.1484 15.5945H53.9795C53.4137 15.5945 52.8782 15.4928 52.3789 15.2878C51.8797 15.0828 51.4389 14.8093 51.0625 14.4675C50.6835 14.1257 50.386 13.7222 50.1709 13.2625C49.9533 12.8027 49.8457 12.3098 49.8457 11.7888V9.47144C49.8457 8.95044 49.9533 8.45539 50.1709 7.99097C50.3886 7.5265 50.686 7.11822 51.0625 6.76929C51.4389 6.42284 51.8797 6.14427 52.3789 5.93921C52.8781 5.73424 53.4137 5.63354 53.9795 5.63354H56.5293ZM66.5674 5.63354C67.2331 5.63354 67.7786 5.77494 68.2012 6.05542C68.6237 6.33595 68.901 6.68447 69.0342 7.09937C69.1673 7.51421 69.1444 7.95299 68.9678 8.41968C68.7911 8.88414 68.4448 9.30905 67.9326 9.68628L62.749 13.4607C63.1255 13.6965 63.5489 13.8142 64.0176 13.8142H68.1865C68.719 13.8143 69.1512 14.2127 69.1514 14.7029V14.7058C69.1512 15.196 68.7189 15.5943 68.1865 15.5945H64.0176C63.4518 15.5945 62.9163 15.4928 62.417 15.2878C61.9177 15.0828 61.477 14.8093 61.1006 14.4675C60.7216 14.1257 60.4241 13.7222 60.209 13.2625C59.9913 12.8027 59.8838 12.3098 59.8838 11.7888V9.47144C59.8838 8.95044 59.9914 8.45539 60.209 7.99097C60.4267 7.5265 60.7241 7.11822 61.1006 6.76929C61.4795 6.42284 61.9178 6.14427 62.417 5.93921C62.9162 5.73424 63.4518 5.63354 64.0176 5.63354H66.5674ZM89.0342 5.63159C89.5668 5.63159 90 6.02987 90 6.52026V6.52222C90 7.01261 89.5668 7.41089 89.0342 7.41089H83.2139C83.0244 7.41089 82.8573 7.43445 82.7139 7.47925C82.5707 7.52635 82.4714 7.59063 82.415 7.67065C82.3587 7.75313 82.3561 7.84955 82.4072 7.96265C82.4559 8.07581 82.5761 8.19878 82.7656 8.33081L87.3672 11.5398C87.8998 11.9076 88.2634 12.3271 88.458 12.7986C88.6526 13.27 88.6865 13.7109 88.5586 14.1257C88.4305 14.5407 88.1486 14.8877 87.7158 15.1707C87.2831 15.4512 86.7093 15.5925 86 15.5925L79.0137 15.5916H77.4053V9.6228C77.4053 8.96746 77.1902 8.43633 76.7627 8.02612C76.335 7.61824 75.771 7.41284 75.0693 7.41284H73.1182C72.6956 7.41284 72.378 7.52675 72.168 7.75073C71.9581 7.9747 71.8506 8.2928 71.8506 8.70288V14.7058C71.8504 15.1961 71.4173 15.5945 70.8848 15.5945H70.8828C70.3503 15.5945 69.9172 15.1961 69.917 14.7058V8.70288C69.917 8.27378 69.9915 7.87032 70.1426 7.4978C70.2937 7.12541 70.5061 6.79995 70.7852 6.52417C71.0617 6.24837 71.3996 6.03115 71.7939 5.87085C72.1883 5.71289 72.632 5.63354 73.1211 5.63354H75.0693C75.7147 5.63354 76.2963 5.72716 76.8213 5.91577C77.3437 6.10437 77.7918 6.37565 78.1631 6.72925C78.5344 7.0829 78.8238 7.50545 79.0312 7.99585C79.236 8.48617 79.3389 9.02878 79.3389 9.6228V13.8123H86C86.4327 13.8122 86.6733 13.7391 86.7168 13.5906C86.7602 13.4421 86.5985 13.2462 86.2324 12.9988L81.6133 9.76147C81.0806 9.38189 80.7316 8.95549 80.5703 8.47925C80.409 8.00307 80.4073 7.5551 80.5635 7.1355C80.7197 6.71599 81.0239 6.35999 81.4795 6.07007C81.9353 5.77772 82.5147 5.63159 83.2139 5.63159H89.0342ZM32.2451 5.63159C32.7778 5.63161 33.2109 6.02988 33.2109 6.52026V6.52222C33.2109 7.0126 32.7778 7.41087 32.2451 7.41089H26.4238C26.2345 7.41091 26.0681 7.43451 25.9248 7.47925C25.7788 7.5264 25.6788 7.59049 25.625 7.67065C25.5688 7.75306 25.5662 7.84968 25.6172 7.96265C25.6658 8.07576 25.7862 8.19885 25.9756 8.33081L30.5781 11.5398C31.1107 11.9076 31.4743 12.3271 31.6689 12.7986C31.8635 13.2701 31.8965 13.7108 31.7686 14.1257C31.6405 14.5407 31.3611 14.8877 30.9258 15.1707C30.4931 15.451 29.9196 15.5925 29.208 15.5925H23.1875C22.6549 15.5925 22.2218 15.1941 22.2217 14.7039V14.7009C22.2219 14.2107 22.6549 13.8123 23.1875 13.8123H29.208C29.6407 13.8122 29.8813 13.7391 29.9248 13.5906C29.9682 13.4421 29.8065 13.2462 29.4404 12.9988L24.8232 9.76147C24.2908 9.38196 23.9425 8.95537 23.7812 8.47925C23.62 8.00306 23.6173 7.55512 23.7734 7.1355C23.9296 6.71586 24.2346 6.36005 24.6904 6.07007C25.1462 5.77776 25.7248 5.63163 26.4238 5.63159H32.2451ZM49.1318 5.63354C49.6645 5.63354 50.0977 6.03182 50.0977 6.52222V6.52417C50.0977 7.01457 49.6645 7.41284 49.1318 7.41284H47.3135C46.6146 7.41294 46.0487 7.61834 45.6211 8.02612C45.1934 8.43635 44.9785 8.96738 44.9785 9.6228V14.7029C44.9785 15.1933 44.5454 15.5916 44.0127 15.5916H44.0107C43.4781 15.5916 43.0449 15.1933 43.0449 14.7029V9.6228C43.0475 9.03118 43.1497 8.4885 43.3545 7.99585C43.5594 7.50547 43.8488 7.08289 44.2227 6.72925C44.594 6.37563 45.0448 6.10438 45.5723 5.91577C46.0997 5.72721 46.6811 5.63359 47.3135 5.63354H49.1318ZM53.9795 7.41089C53.6799 7.41089 53.3952 7.46498 53.1289 7.57104C52.8626 7.67948 52.6294 7.8233 52.4297 8.00952C52.2299 8.19342 52.0709 8.41057 51.9531 8.66284C51.8354 8.91271 51.7793 9.18191 51.7793 9.46948V11.8484L56.7139 8.30249C56.8469 8.21061 56.9519 8.11105 57.0312 8.00269C57.1079 7.89443 57.1446 7.7978 57.1396 7.71069C57.1345 7.62353 57.0829 7.55241 56.9883 7.49585C56.8935 7.43927 56.7393 7.41089 56.5293 7.41089H53.9795ZM64.0176 7.41089C63.718 7.41089 63.4333 7.46498 63.167 7.57104C62.9007 7.67948 62.6675 7.8233 62.4678 8.00952C62.268 8.19342 62.109 8.41057 61.9912 8.66284C61.8735 8.91271 61.8174 9.18191 61.8174 9.46948V11.8484L66.752 8.30249C66.885 8.21061 66.99 8.11105 67.0693 8.00269C67.146 7.89443 67.1827 7.7978 67.1777 7.71069C67.1726 7.62353 67.121 7.55241 67.0264 7.49585C66.9316 7.43927 66.7774 7.41089 66.5674 7.41089H64.0176Z" data-figma-gradient-fill="{&#34;type&#34;:&#34;GRADIENT_DIAMOND&#34;,&#34;stops&#34;:[{&#34;color&#34;:{&#34;r&#34;:0.95686274766921997,&#34;g&#34;:0.10588235408067703,&#34;b&#34;:0.23137255012989044,&#34;a&#34;:1.0},&#34;position&#34;:0.036458332091569901},{&#34;color&#34;:{&#34;r&#34;:0.68235296010971069,&#34;g&#34;:0.27450981736183167,&#34;b&#34;:0.72549021244049072,&#34;a&#34;:1.0},&#34;position&#34;:0.36979162693023682},{&#34;color&#34;:{&#34;r&#34;:0.55886799097061157,&#34;g&#34;:0.46260422468185425,&#34;b&#34;:0.98739582300186157,&#34;a&#34;:1.0},&#34;position&#34;:0.63020825386047363},{&#34;color&#34;:{&#34;r&#34;:0.094117648899555206,&#34;g&#34;:0.51764708757400513,&#34;b&#34;:0.96862745285034180,&#34;a&#34;:1.0},&#34;position&#34;:1.0}],&#34;stopsVar&#34;:[],&#34;transform&#34;:{&#34;m00&#34;:-176.77809143066406,&#34;m01&#34;:914.65930175781250,&#34;m02&#34;:-272.56973266601562,&#34;m10&#34;:-38.850170135498047,&#34;m11&#34;:-3434.328613281250,&#34;m12&#34;:1752.1888427734375},&#34;opacity&#34;:1.0,&#34;blendMode&#34;:&#34;NORMAL&#34;,&#34;visible&#34;:true}"/>
<defs>
<clipPath id="paint1_diamond_884_1285_clip_path"><path d="M41.1143 5.63354C41.6469 5.63354 42.0801 6.03182 42.0801 6.52222V6.52417C42.0801 7.01457 41.6469 7.41284 41.1143 7.41284H37.2598C36.9373 7.41289 36.6404 7.46755 36.3691 7.57593C36.0977 7.68438 35.8545 7.82839 35.6445 8.00757C35.4345 8.18675 35.2701 8.40104 35.1523 8.64624C35.0346 8.89141 34.9785 9.15323 34.9785 9.4314V12.8787C34.9786 13.1355 35.0835 13.3546 35.2959 13.5408C35.5058 13.7246 35.762 13.8191 36.0615 13.8191H41.1143C41.6469 13.8191 42.08 14.2174 42.0801 14.7078V14.7097C42.0801 15.2001 41.6469 15.5994 41.1143 15.5994H36.0615C35.6392 15.5993 35.245 15.5282 34.8789 15.3845C34.5128 15.2407 34.1923 15.0476 33.9209 14.8025C33.6494 14.5573 33.4345 14.2668 33.2783 13.9343C33.1221 13.6019 33.0449 13.2504 33.0449 12.8826V9.43823C33.0424 8.91729 33.1523 8.4245 33.375 7.95776C33.5978 7.49337 33.8974 7.08768 34.2764 6.74585C34.6554 6.40399 35.0991 6.13278 35.6113 5.93237C36.1234 5.73207 36.6713 5.63355 37.2627 5.63354H41.1143ZM56.5293 5.63354C57.195 5.63354 57.7406 5.77494 58.1631 6.05542C58.5856 6.33595 58.8629 6.68447 58.9961 7.09937C59.1292 7.51421 59.1063 7.95299 58.9297 8.41968C58.753 8.8865 58.4067 9.30905 57.8945 9.68628L52.7109 13.4607C53.09 13.6965 53.5108 13.8142 53.9795 13.8142H58.1484C58.6809 13.8143 59.1131 14.2127 59.1133 14.7029V14.7058C59.1131 15.196 58.6809 15.5943 58.1484 15.5945H53.9795C53.4137 15.5945 52.8782 15.4928 52.3789 15.2878C51.8797 15.0828 51.4389 14.8093 51.0625 14.4675C50.6835 14.1257 50.386 13.7222 50.1709 13.2625C49.9533 12.8027 49.8457 12.3098 49.8457 11.7888V9.47144C49.8457 8.95044 49.9533 8.45539 50.1709 7.99097C50.3886 7.5265 50.686 7.11822 51.0625 6.76929C51.4389 6.42284 51.8797 6.14427 52.3789 5.93921C52.8781 5.73424 53.4137 5.63354 53.9795 5.63354H56.5293ZM66.5674 5.63354C67.2331 5.63354 67.7786 5.77494 68.2012 6.05542C68.6237 6.33595 68.901 6.68447 69.0342 7.09937C69.1673 7.51421 69.1444 7.95299 68.9678 8.41968C68.7911 8.88414 68.4448 9.30905 67.9326 9.68628L62.749 13.4607C63.1255 13.6965 63.5489 13.8142 64.0176 13.8142H68.1865C68.719 13.8143 69.1512 14.2127 69.1514 14.7029V14.7058C69.1512 15.196 68.7189 15.5943 68.1865 15.5945H64.0176C63.4518 15.5945 62.9163 15.4928 62.417 15.2878C61.9177 15.0828 61.477 14.8093 61.1006 14.4675C60.7216 14.1257 60.4241 13.7222 60.209 13.2625C59.9913 12.8027 59.8838 12.3098 59.8838 11.7888V9.47144C59.8838 8.95044 59.9914 8.45539 60.209 7.99097C60.4267 7.5265 60.7241 7.11822 61.1006 6.76929C61.4795 6.42284 61.9178 6.14427 62.417 5.93921C62.9162 5.73424 63.4518 5.63354 64.0176 5.63354H66.5674ZM89.0342 5.63159C89.5668 5.63159 90 6.02987 90 6.52026V6.52222C90 7.01261 89.5668 7.41089 89.0342 7.41089H83.2139C83.0244 7.41089 82.8573 7.43445 82.7139 7.47925C82.5707 7.52635 82.4714 7.59063 82.415 7.67065C82.3587 7.75313 82.3561 7.84955 82.4072 7.96265C82.4559 8.07581 82.5761 8.19878 82.7656 8.33081L87.3672 11.5398C87.8998 11.9076 88.2634 12.3271 88.458 12.7986C88.6526 13.27 88.6865 13.7109 88.5586 14.1257C88.4305 14.5407 88.1486 14.8877 87.7158 15.1707C87.2831 15.4512 86.7093 15.5925 86 15.5925L79.0137 15.5916H77.4053V9.6228C77.4053 8.96746 77.1902 8.43633 76.7627 8.02612C76.335 7.61824 75.771 7.41284 75.0693 7.41284H73.1182C72.6956 7.41284 72.378 7.52675 72.168 7.75073C71.9581 7.9747 71.8506 8.2928 71.8506 8.70288V14.7058C71.8504 15.1961 71.4173 15.5945 70.8848 15.5945H70.8828C70.3503 15.5945 69.9172 15.1961 69.917 14.7058V8.70288C69.917 8.27378 69.9915 7.87032 70.1426 7.4978C70.2937 7.12541 70.5061 6.79995 70.7852 6.52417C71.0617 6.24837 71.3996 6.03115 71.7939 5.87085C72.1883 5.71289 72.632 5.63354 73.1211 5.63354H75.0693C75.7147 5.63354 76.2963 5.72716 76.8213 5.91577C77.3437 6.10437 77.7918 6.37565 78.1631 6.72925C78.5344 7.0829 78.8238 7.50545 79.0312 7.99585C79.236 8.48617 79.3389 9.02878 79.3389 9.6228V13.8123H86C86.4327 13.8122 86.6733 13.7391 86.7168 13.5906C86.7602 13.4421 86.5985 13.2462 86.2324 12.9988L81.6133 9.76147C81.0806 9.38189 80.7316 8.95549 80.5703 8.47925C80.409 8.00307 80.4073 7.5551 80.5635 7.1355C80.7197 6.71599 81.0239 6.35999 81.4795 6.07007C81.9353 5.77772 82.5147 5.63159 83.2139 5.63159H89.0342ZM32.2451 5.63159C32.7778 5.63161 33.2109 6.02988 33.2109 6.52026V6.52222C33.2109 7.0126 32.7778 7.41087 32.2451 7.41089H26.4238C26.2345 7.41091 26.0681 7.43451 25.9248 7.47925C25.7788 7.5264 25.6788 7.59049 25.625 7.67065C25.5688 7.75306 25.5662 7.84968 25.6172 7.96265C25.6658 8.07576 25.7862 8.19885 25.9756 8.33081L30.5781 11.5398C31.1107 11.9076 31.4743 12.3271 31.6689 12.7986C31.8635 13.2701 31.8965 13.7108 31.7686 14.1257C31.6405 14.5407 31.3611 14.8877 30.9258 15.1707C30.4931 15.451 29.9196 15.5925 29.208 15.5925H23.1875C22.6549 15.5925 22.2218 15.1941 22.2217 14.7039V14.7009C22.2219 14.2107 22.6549 13.8123 23.1875 13.8123H29.208C29.6407 13.8122 29.8813 13.7391 29.9248 13.5906C29.9682 13.4421 29.8065 13.2462 29.4404 12.9988L24.8232 9.76147C24.2908 9.38196 23.9425 8.95537 23.7812 8.47925C23.62 8.00306 23.6173 7.55512 23.7734 7.1355C23.9296 6.71586 24.2346 6.36005 24.6904 6.07007C25.1462 5.77776 25.7248 5.63163 26.4238 5.63159H32.2451ZM49.1318 5.63354C49.6645 5.63354 50.0977 6.03182 50.0977 6.52222V6.52417C50.0977 7.01457 49.6645 7.41284 49.1318 7.41284H47.3135C46.6146 7.41294 46.0487 7.61834 45.6211 8.02612C45.1934 8.43635 44.9785 8.96738 44.9785 9.6228V14.7029C44.9785 15.1933 44.5454 15.5916 44.0127 15.5916H44.0107C43.4781 15.5916 43.0449 15.1933 43.0449 14.7029V9.6228C43.0475 9.03118 43.1497 8.4885 43.3545 7.99585C43.5594 7.50547 43.8488 7.08289 44.2227 6.72925C44.594 6.37563 45.0448 6.10438 45.5723 5.91577C46.0997 5.72721 46.6811 5.63359 47.3135 5.63354H49.1318ZM53.9795 7.41089C53.6799 7.41089 53.3952 7.46498 53.1289 7.57104C52.8626 7.67948 52.6294 7.8233 52.4297 8.00952C52.2299 8.19342 52.0709 8.41057 51.9531 8.66284C51.8354 8.91271 51.7793 9.18191 51.7793 9.46948V11.8484L56.7139 8.30249C56.8469 8.21061 56.9519 8.11105 57.0312 8.00269C57.1079 7.89443 57.1446 7.7978 57.1396 7.71069C57.1345 7.62353 57.0829 7.55241 56.9883 7.49585C56.8935 7.43927 56.7393 7.41089 56.5293 7.41089H53.9795ZM64.0176 7.41089C63.718 7.41089 63.4333 7.46498 63.167 7.57104C62.9007 7.67948 62.6675 7.8233 62.4678 8.00952C62.268 8.19342 62.109 8.41057 61.9912 8.66284C61.8735 8.91271 61.8174 9.18191 61.8174 9.46948V11.8484L66.752 8.30249C66.885 8.21061 66.99 8.11105 67.0693 8.00269C67.146 7.89443 67.1827 7.7978 67.1777 7.71069C67.1726 7.62353 67.121 7.55241 67.0264 7.49585C66.9316 7.43927 66.7774 7.41089 66.5674 7.41089H64.0176Z"/></clipPath><linearGradient id="paint0_linear_884_1285" x1="-5.34214" y1="10" x2="22.8553" y2="9.99997" gradientUnits="userSpaceOnUse">
<stop stop-color="#F41B3B"/>
<stop offset="1" stop-color="#1884F7"/>
</linearGradient>
<linearGradient id="paint1_diamond_884_1285" x1="0" y1="0" x2="500" y2="500" gradientUnits="userSpaceOnUse">
<stop offset="0.0364583" stop-color="#F41B3B"/>
<stop offset="0.369792" stop-color="#AE46B9"/>
<stop offset="0.630208" stop-color="#8F76FC"/>
<stop offset="1" stop-color="#1884F7"/>
</linearGradient>
</defs>
</svg>
